<svg xmlns="http://www.w3.org/2000/svg" xmlns:xlink="http://www.w3.org/1999/xlink" width="1099pt" height="128pt" viewBox="0 0 1099.49 127.96"><g id="graph0" class="graph" transform="scale(1 1) rotate(0) translate(4 123.958)"><title>%3</title><polygon fill="#fff" stroke="none" points="-4 4 -4 -123.958 1095.49 -123.958 1095.49 4 -4 4"/><g id="node1" class="node"><title>QmRCJXG7HSmprrYwDrK1GctXHgbV7EYpVcJPQPwevoQuqF</title><polygon fill="none" stroke="#000" points="230.563 -96.958 -.188 -96.958 -.188 -60.958 230.563 -60.958 230.563 -96.958"/><text x="115.188" y="-76.558" font-family="Times,serif" font-size="8" text-anchor="middle">QmRCJXG7HSmprrYwDrK1GctXHgbV7EYpVcJPQPwevoQuqF</text></g><g id="node2" class="node"><title>QmajFHHivh25Qb2cNbnnnEeUe1gDLHX9ta7hs2XKX1vazb</title><polygon fill="none" stroke="#000" points="523.592 -119.958 306.771 -119.958 306.771 -83.958 523.592 -83.958 523.592 -119.958"/><text x="415.182" y="-99.558" font-family="Times,serif" font-size="8" text-anchor="middle">QmajFHHivh25Qb2cNbnnnEeUe1gDLHX9ta7hs2XKX1vazb</text></g><g id="edge1" class="edge"><title>QmRCJXG7HSmprrYwDrK1GctXHgbV7EYpVcJPQPwevoQuqF-&gt;QmajFHHivh25Qb2cNbnnnEeUe1gDLHX9ta7hs2XKX1vazb</title><path fill="none" stroke="#000" d="M230.548,-87.7844C252.085,-89.4467 274.644,-91.1879 296.287,-92.8584"/><polygon fill="#000" stroke="#000" points="296.254 -96.366 306.494 -93.646 296.793 -89.387 296.254 -96.366"/><text x="267.229" y="-93.758" font-family="Times,serif" font-size="14" text-anchor="middle">cat.jpg</text></g><g id="node3" class="node"><title>QmNtpA5TBNqHrKf3cLQ1AiUKXiE4JmUodbG5gXrajg8wdv</title><polygon fill="none" stroke="#000" points="526.381 -65.958 303.982 -65.958 303.982 -29.958 526.381 -29.958 526.381 -65.958"/><text x="415.182" y="-45.558" font-family="Times,serif" font-size="8" text-anchor="middle">QmNtpA5TBNqHrKf3cLQ1AiUKXiE4JmUodbG5gXrajg8wdv</text></g><g id="edge2" class="edge"><title>QmRCJXG7HSmprrYwDrK1GctXHgbV7EYpVcJPQPwevoQuqF-&gt;QmNtpA5TBNqHrKf3cLQ1AiUKXiE4JmUodbG5gXrajg8wdv</title><path fill="none" stroke="#000" d="M230.548,-67.0611C251.282,-64.9041 272.964,-62.6485 293.864,-60.4744"/><polygon fill="#000" stroke="#000" points="294.469 -63.93 304.053 -59.414 293.745 -56.968 294.469 -63.93"/><text x="267.229" y="-66.758" font-family="Times,serif" font-size="14" text-anchor="middle">test</text></g><g id="node4" class="node"><title>QmTz3oc4gdpRMKP2sdGUPZTAGRngqjsi99BPoztyP53JMM</title><polygon fill="none" stroke="#000" points="1082.83 -100.958 862.398 -100.958 862.398 -64.958 1082.83 -64.958 1082.83 -100.958"/><text x="972.613" y="-80.558" font-family="Times,serif" font-size="8" text-anchor="middle">QmTz3oc4gdpRMKP2sdGUPZTAGRngqjsi99BPoztyP53JMM</text></g><g id="edge3" class="edge"><title>QmNtpA5TBNqHrKf3cLQ1AiUKXiE4JmUodbG5gXrajg8wdv-&gt;QmTz3oc4gdpRMKP2sdGUPZTAGRngqjsi99BPoztyP53JMM</title><path fill="none" stroke="#000" d="M513.5,-65.9828C535.838,-69.5205 559.539,-72.7998 581.709,-74.9578 691.041,-85.6 718.905,-81.1798 828.74,-82.9578 836.242,-83.0792 843.965,-83.172 851.753,-83.2411"/><polygon fill="#000" stroke="#000" points="851.989 -86.743 862.015 -83.319 852.042 -79.743 851.989 -86.743"/><text x="696.225" y="-84.758" font-family="Times,serif" font-size="14" text-anchor="middle">bar</text></g><g id="node5" class="node"><title>QmX1ebVUtfY11ZCpVmqyE5mDoN62SpLd8eLPpg5GGV1ABt</title><polygon fill="none" stroke="#000" points="810.756 -65.958 581.693 -65.958 581.693 -29.958 810.756 -29.958 810.756 -65.958"/><text x="696.225" y="-45.558" font-family="Times,serif" font-size="8" text-anchor="middle">QmX1ebVUtfY11ZCpVmqyE5mDoN62SpLd8eLPpg5GGV1ABt</text></g><g id="edge4" class="edge"><title>QmNtpA5TBNqHrKf3cLQ1AiUKXiE4JmUodbG5gXrajg8wdv-&gt;QmX1ebVUtfY11ZCpVmqyE5mDoN62SpLd8eLPpg5GGV1ABt</title><path fill="none" stroke="#000" d="M526.467,-47.9578C541.196,-47.9578 556.38,-47.9578 571.323,-47.9578"/><polygon fill="#000" stroke="#000" points="571.62 -51.458 581.62 -47.958 571.62 -44.458 571.62 -51.458"/><text x="553.995" y="-50.758" font-family="Times,serif" font-size="14" text-anchor="middle">baz</text></g><g id="node6" class="node"><title>QmYNmQKp6SuaVrpgWRsPTgCQCnpxUYGq76YEKBXuj2N4H6</title><polygon fill="none" stroke="#000" points="1091.36 -37.958 853.867 -37.958 853.867 -1.958 1091.36 -1.958 1091.36 -37.958"/><text x="972.613" y="-17.558" font-family="Times,serif" font-size="8" text-anchor="middle">QmYNmQKp6SuaVrpgWRsPTgCQCnpxUYGq76YEKBXuj2N4H6</text></g><g id="edge7" class="edge"><title>QmNtpA5TBNqHrKf3cLQ1AiUKXiE4JmUodbG5gXrajg8wdv-&gt;QmYNmQKp6SuaVrpgWRsPTgCQCnpxUYGq76YEKBXuj2N4H6</title><path fill="none" stroke="#000" d="M474.14,-29.9358C505.616,-21.0834 545.415,-11.3858 581.709,-6.95781 668.571,3.63959 767.068,0.229124 843.332,-5.74933"/><polygon fill="#000" stroke="#000" points="843.217 -9.251 853.467 -6.569 843.782 -2.274 843.217 -9.251"/><text x="696.225" y="-9.758" font-family="Times,serif" font-size="14" text-anchor="middle">foo</text></g><g id="edge5" class="edge"><title>QmX1ebVUtfY11ZCpVmqyE5mDoN62SpLd8eLPpg5GGV1ABt-&gt;QmTz3oc4gdpRMKP2sdGUPZTAGRngqjsi99BPoztyP53JMM</title><path fill="none" stroke="#000" d="M810.81,-62.4463C824.453,-64.1866 838.418,-65.9679 852.142,-67.7184"/><polygon fill="#000" stroke="#000" points="851.722 -71.193 862.084 -68.987 852.607 -64.249 851.722 -71.193"/><text x="832.24" y="-67.758" font-family="Times,serif" font-size="14" text-anchor="middle">b</text></g><g id="edge6" class="edge"><title>QmX1ebVUtfY11ZCpVmqyE5mDoN62SpLd8eLPpg5GGV1ABt-&gt;QmYNmQKp6SuaVrpgWRsPTgCQCnpxUYGq76YEKBXuj2N4H6</title><path fill="none" stroke="#000" d="M810.81,-36.367C821.646,-35.2612 832.685,-34.1347 843.645,-33.0163"/><polygon fill="#000" stroke="#000" points="844.087 -36.489 853.68 -31.992 843.377 -29.526 844.087 -36.489"/><text x="832.24" y="-36.758" font-family="Times,serif" font-size="14" text-anchor="middle">f</text></g></g></svg>